<svg xmlns="http://www.w3.org/2000/svg" viewBox="0 0 512 512">
  <defs>
    <linearGradient id="grad1" x1="0%" y1="0%" x2="100%" y2="100%">
      <stop offset="0%" style="stop-color:#3b82f6;stop-opacity:1" />
      <stop offset="100%" style="stop-color:#10b981;stop-opacity:1" />
    </linearGradient>
  </defs>
  
  <rect width="512" height="512" rx="100" fill="#09090b" />
  
  <!-- Database Shape -->
  <path d="M256 120c-70.7 0-128 20-128 44.8v182.4c0 24.8 57.3 44.8 128 44.8s128-20 128-44.8V164.8C384 140 326.7 120 256 120z" fill="url(#grad1)" opacity="0.2"/>
  <ellipse cx="256" cy="164.8" rx="128" ry="44.8" fill="url(#grad1)" />
  <path d="M384 164.8v60.8c0 24.8-57.3 44.8-128 44.8s-128-20-128-44.8v-60.8c0 24.8 57.3 44.8 128 44.8S384 189.6 384 164.8z" fill="url(#grad1)" opacity="0.8"/>
  <path d="M384 225.6v60.8c0 24.8-57.3 44.8-128 44.8s-128-20-128-44.8v-60.8c0 24.8 57.3 44.8 128 44.8S384 250.4 384 225.6z" fill="url(#grad1)" opacity="0.6"/>
  
  <!-- Terminal Prompt -->
  <path d="M180 340l40 40-40 40M240 410h60" stroke="#ffffff" stroke-width="24" stroke-linecap="round" stroke-linejoin="round" fill="none"/>
</svg>